<svg width="91" height="91" viewBox="0 0 91 91" fill="none" xmlns="http://www.w3.org/2000/svg">
<g clip-path="url(#clip0_399_1422)">
<rect width="90.3704" height="90.3704" fill="#FF4D00"/>
<rect width="10.0412" height="10.0412" fill="#FF4D00"/>
<rect y="13.3877" width="10.0412" height="10.0412" fill="#FF4D00"/>
<rect y="26.7764" width="10.0412" height="10.0412" fill="#FF4D00"/>
<rect y="40.1643" width="10.0412" height="10.0412" fill="#FF4D00"/>
<rect y="53.553" width="10.0412" height="10.0412" fill="#FF4D00"/>
<rect y="66.9407" width="10.0412" height="10.0412" fill="#FF4D00"/>
<rect y="80.3293" width="10.0412" height="10.0412" fill="#FF4D00"/>
<rect x="26.7773" width="10.0412" height="10.0412" fill="#FF4D00"/>
<rect x="26.7773" y="13.3877" width="10.0412" height="10.0412" fill="white"/>
<rect x="26.7773" y="26.7764" width="10.0412" height="10.0412" fill="#FF4D00"/>
<rect x="26.7773" y="40.1643" width="10.0412" height="10.0412" fill="#FF4D00"/>
<rect x="26.7773" y="53.553" width="10.0412" height="10.0412" fill="#FF4D00"/>
<rect x="26.7773" y="66.9407" width="10.0412" height="10.0412" fill="white"/>
<rect x="26.7773" y="80.3293" width="10.0412" height="10.0412" fill="#FF4D00"/>
<rect x="53.5508" width="10.0412" height="10.0412" fill="#FF4D00"/>
<rect x="53.5508" y="13.3877" width="10.0412" height="10.0412" fill="white"/>
<rect x="53.5508" y="26.7764" width="10.0412" height="10.0412" fill="#FF4D00"/>
<rect x="53.5508" y="40.1643" width="10.0412" height="10.0412" fill="#FF4D00"/>
<rect x="53.5508" y="53.553" width="10.0412" height="10.0412" fill="#FF4D00"/>
<rect x="53.5508" y="66.9407" width="10.0412" height="10.0412" fill="white"/>
<rect x="53.5508" y="80.3293" width="10.0412" height="10.0412" fill="#FF4D00"/>
<rect x="13.3906" width="10.0412" height="10.0412" fill="#FF4D00"/>
<rect x="13.3906" y="13.3877" width="10.0412" height="10.0412" fill="#FF4D00"/>
<rect x="13.3906" y="26.7764" width="10.0412" height="10.0412" fill="white"/>
<rect x="13.3906" y="40.1643" width="10.0412" height="10.0412" fill="white"/>
<rect x="13.3906" y="53.553" width="10.0412" height="10.0412" fill="white"/>
<rect x="13.3906" y="66.9407" width="10.0412" height="10.0412" fill="#FF4D00"/>
<rect x="13.3906" y="80.3293" width="10.0412" height="10.0412" fill="#FF4D00"/>
<rect x="40.168" width="10.0412" height="10.0412" fill="#FF4D00"/>
<rect x="40.168" y="13.3877" width="10.0412" height="10.0412" fill="white"/>
<rect x="40.168" y="26.7764" width="10.0412" height="10.0412" fill="#FF4D00"/>
<rect x="40.168" y="40.1643" width="10.0412" height="10.0412" fill="white"/>
<rect x="40.168" y="53.553" width="10.0412" height="10.0412" fill="#FF4D00"/>
<rect x="40.168" y="66.9407" width="10.0412" height="10.0412" fill="white"/>
<rect x="40.168" y="80.3293" width="10.0412" height="10.0412" fill="#FF4D00"/>
<rect x="66.9414" width="10.0412" height="10.0412" fill="#FF4D00"/>
<rect x="66.9414" y="13.3877" width="10.0412" height="10.0412" fill="#FF4D00"/>
<rect x="66.9414" y="26.7764" width="10.0412" height="10.0412" fill="white"/>
<rect x="66.9414" y="40.1643" width="10.0412" height="10.0412" fill="white"/>
<rect x="66.9414" y="53.553" width="10.0412" height="10.0412" fill="white"/>
<rect x="66.9414" y="66.9407" width="10.0412" height="10.0412" fill="#FF4D00"/>
<rect x="66.9414" y="80.3293" width="10.0412" height="10.0412" fill="#FF4D00"/>
<rect x="80.3281" width="10.0412" height="10.0412" fill="#FF4D00"/>
<rect x="80.3281" y="13.3877" width="10.0412" height="10.0412" fill="#FF4D00"/>
<rect x="80.3281" y="26.7764" width="10.0412" height="10.0412" fill="#FF4D00"/>
<rect x="80.3281" y="40.1643" width="10.0412" height="10.0412" fill="#FF4D00"/>
<rect x="80.3281" y="53.553" width="10.0412" height="10.0412" fill="#FF4D00"/>
<rect x="80.3281" y="66.9407" width="10.0412" height="10.0412" fill="#FF4D00"/>
<rect x="80.3281" y="80.3293" width="10.0412" height="10.0412" fill="#FF4D00"/>
</g>
<defs>
<clipPath id="clip0_399_1422">
<rect width="90.3704" height="90.3704" fill="white"/>
</clipPath>
</defs>
</svg>
